<?xml version="1.0" encoding="UTF-8"?>
<svg width="20px" height="20px" viewBox="0 0 20 20" version="1.1" xmlns="http://www.w3.org/2000/svg" xmlns:xlink="http://www.w3.org/1999/xlink">
    <title>807F1BEA-7841-415F-938F-4198B23573F0</title>
    <g id="Screens" stroke="none" stroke-width="1" fill="none" fill-rule="evenodd">
        <g id="Home" transform="translate(-350.000000, -494.000000)">
            <g id="Hero-01" transform="translate(-77.000000, -54.000000)">
                <g id="Read-more" transform="translate(421.000000, 542.000000)">
                    <g id="-Round-/-Navigation-/-arrow_forward" transform="translate(6.000000, 6.000000)">
                        <polygon id="Path" points="0 0 20 0 20 20 0 20"></polygon>
                        <path d="M4.16666667,10.8333333 L13.475,10.8333333 L10.2416667,14.0666667 C9.91666667,14.3916667 9.91666667,14.925 10.2416667,15.25 C10.5666667,15.575 11.0916667,15.575 11.4166667,15.25 L16.075,10.5916667 C16.4,10.2666667 16.4,9.74166667 16.075,9.41666667 L11.425,4.75 C11.1,4.425 10.575,4.425 10.25,4.75 C9.925,5.075 9.925,5.6 10.25,5.925 L13.475,9.16666667 L4.16666667,9.16666667 C3.70833333,9.16666667 3.33333333,9.54166667 3.33333333,10 C3.33333333,10.4583333 3.70833333,10.8333333 4.16666667,10.8333333 Z" id="🔹-Icon-Color" fill="#FFFFFF"></path>
                    </g>
                </g>
            </g>
        </g>
    </g>
</svg>