<?xml version="1.0" encoding="UTF-8"?>
<svg width="1516px" height="467px" viewBox="0 0 1516 467" version="1.1" xmlns="http://www.w3.org/2000/svg" xmlns:xlink="http://www.w3.org/1999/xlink">
    <title>5598D656-9485-4C55-AFB9-7397DA0D212E</title>
    <g id="Screens" stroke="none" stroke-width="1" fill="none" fill-rule="evenodd" stroke-dasharray="0,0">
        <g id="Home" transform="translate(78.000000, -344.000000)" stroke="#2A284B" stroke-width="2">
            <g id="Hero-01" transform="translate(-77.000000, -54.000000)">
                <g id="Group-676" transform="translate(0.000000, 400.000000)">
                    <path d="M1435.5,424.242767 C1385.5,349.742279 1260.5,104.742828 959,181.242554 C919.5,191.242484 732.318924,232.981625 633,208.242935 C496.5,174.243057 312.5,-14.2576637 71,128.242489" id="Vector-719"></path>
                    <path d="M1213.5,459.742188 C1172.51833,382.423409 1041.47693,249.546691 845.16473,336.590107 C790.189316,354.524664 719.720831,388.600727 615.267546,328.220338 C510.81426,267.839949 444.843764,209.253035 287.913947,246.318224 C162.370095,275.970375 107.328043,400.955675 95.5,459.742188" id="Vector-721"></path>
                    <path d="M216.5,461.350789 C265.833332,371.48159 405,226.415564 567,365.105063 C769.5,538.466937 938.5,270.055128 1092.5,463.742188" id="Vector-722"></path>
                    <path d="M319.5,463.742146 C360.5,415.442204 529.800003,378.302799 633,455.743038" id="Vector-723"></path>
                    <path d="M447.5,455.018335 C461.166667,448.018335 498.400002,438.218336 538,455.018335" id="Vector-724"></path>
                    <path d="M71,254.743782 C136.5,191.743271 308.672791,106.85885 448,178.742716 C620.5,267.74161 688.369019,294.876829 818.5,267.744217 C948,240.743164 1160.5,188.242188 1330,457.242188" id="Vector-720"></path>
                    <path d="M1513.5,368.243347 C1436.5,236.743164 1226.29999,6.34335327 937.5,140.743347 C883,166.242916 712,216.74292 436.5,65.2429199 C216.100006,-55.957077 53.6666679,19.076252 0,71.7429199" id="Vector-725"></path>
                </g>
            </g>
        </g>
    </g>
</svg>